<svg width="218" height="64" viewBox="0 0 218 64" fill="none" xmlns="http://www.w3.org/2000/svg">
<path d="M53.4897 32.0677C53.5076 30.679 53.8775 29.3174 54.565 28.1095C55.2524 26.9016 56.2351 25.8868 57.4216 25.1594C56.6679 24.086 55.6735 23.2026 54.5175 22.5794C53.3616 21.9562 52.0758 21.6104 50.7623 21.5694C47.9605 21.2761 45.2443 23.2413 43.8165 23.2413C42.3611 23.2413 40.1628 21.5985 37.7957 21.6471C36.2645 21.6964 34.7723 22.1404 33.4644 22.9358C32.1565 23.7312 31.0775 24.8509 30.3326 26.1858C27.1058 31.757 29.5127 39.9448 32.6038 44.4482C34.1503 46.6534 35.9577 49.1166 38.3228 49.0292C40.6371 48.9335 41.5015 47.5576 44.295 47.5576C47.0627 47.5576 47.8736 49.0292 50.2866 48.9737C52.77 48.9335 54.3346 46.7587 55.8269 44.5327C56.9381 42.9614 57.7932 41.2248 58.3604 39.3873C56.9177 38.7787 55.6864 37.7602 54.8203 36.4586C53.9541 35.1569 53.4913 33.6299 53.4897 32.0677Z" fill="black"/>
<path d="M48.9326 18.608C50.2866 16.9871 50.9537 14.9037 50.7922 12.8002C48.7235 13.0168 46.8126 14.0028 45.4403 15.5615C44.7693 16.323 44.2554 17.2088 43.928 18.1685C43.6006 19.1281 43.466 20.1427 43.532 21.1543C44.5667 21.1649 45.5903 20.9413 46.5258 20.5002C47.4613 20.0591 48.2842 19.4122 48.9326 18.608Z" fill="black"/>
<path d="M81.2559 43.6682H73.6612L71.8373 49.0385H68.6205L75.8141 29.1697H79.1562L86.3498 49.0385H83.0781L81.2559 43.6682ZM74.4477 41.19H80.4678L77.5001 32.4744H77.417L74.4477 41.19Z" fill="black"/>
<path d="M101.886 41.7966C101.886 46.2981 99.4699 49.1903 95.8238 49.1903C94.9002 49.2385 93.9816 49.0263 93.1733 48.5781C92.3649 48.1299 91.6995 47.4637 91.2532 46.6559H91.1842V53.8309H88.2024V34.5528H91.0886V36.9622H91.1435C91.6103 36.1582 92.287 35.4955 93.1015 35.0446C93.9159 34.5936 94.8378 34.3713 95.7689 34.4012C99.4558 34.4012 101.886 37.3075 101.886 41.7966ZM98.8212 41.7966C98.8212 38.8638 97.3014 36.9356 94.9824 36.9356C92.7041 36.9356 91.1717 38.9044 91.1717 41.7966C91.1717 44.7153 92.7041 46.67 94.9824 46.67C97.3014 46.67 98.8212 44.7559 98.8212 41.7966H98.8212Z" fill="black"/>
<path d="M117.875 41.7966C117.875 46.2981 115.458 49.1903 111.812 49.1903C110.888 49.2385 109.969 49.0263 109.161 48.5781C108.353 48.1299 107.687 47.4637 107.241 46.6559H107.172V53.8309H104.19V34.5528H107.076V36.9622H107.131C107.598 36.1582 108.275 35.4955 109.089 35.0446C109.904 34.5936 110.826 34.3713 111.757 34.4012C115.444 34.4012 117.875 37.3075 117.875 41.7966ZM114.809 41.7966C114.809 38.8638 113.289 36.9356 110.97 36.9356C108.692 36.9356 107.16 38.9044 107.16 41.7966C107.16 44.7153 108.692 46.67 110.97 46.67C113.289 46.67 114.809 44.7559 114.809 41.7966Z" fill="black"/>
<path d="M128.441 43.5028C128.662 45.4731 130.581 46.7668 133.204 46.7668C135.717 46.7668 137.526 45.473 137.526 43.6964C137.526 42.1543 136.435 41.2308 133.853 40.598L131.271 39.9777C127.612 39.0964 125.913 37.3902 125.913 34.6214C125.913 31.1933 128.909 28.8386 133.162 28.8386C137.374 28.8386 140.26 31.1933 140.357 34.6214H137.347C137.167 32.6386 135.523 31.4418 133.121 31.4418C130.719 31.4418 129.075 32.6527 129.075 34.4152C129.075 35.8199 130.125 36.6464 132.693 37.2792L134.889 37.8167C138.977 38.7808 140.674 40.4183 140.674 43.3245C140.674 47.0417 137.706 49.3698 132.983 49.3698C128.565 49.3698 125.581 47.0964 125.388 43.5026L128.441 43.5028Z" fill="black"/>
<path d="M147.111 31.125V34.5531H149.873V36.9078H147.111V44.8937C147.111 46.1344 147.664 46.7125 148.878 46.7125C149.206 46.7068 149.534 46.6838 149.859 46.6437V48.9843C149.313 49.086 148.758 49.1321 148.203 49.1218C145.262 49.1218 144.115 48.0203 144.115 45.2109V36.9078H142.003V34.5531H144.115V31.125H147.111Z" fill="black"/>
<path d="M151.473 41.7963C151.473 37.2385 154.164 34.3744 158.362 34.3744C162.574 34.3744 165.253 37.2384 165.253 41.7963C165.253 46.3666 162.588 49.2181 158.362 49.2181C154.138 49.2181 151.473 46.3666 151.473 41.7963ZM162.215 41.7963C162.215 38.6697 160.778 36.8244 158.362 36.8244C155.946 36.8244 154.509 38.6838 154.509 41.7963C154.509 44.9353 155.946 46.7666 158.362 46.7666C160.778 46.7666 162.215 44.9353 162.215 41.7963H162.215Z" fill="black"/>
<path d="M167.711 34.5527H170.555V37.0183H170.624C170.816 36.2482 171.269 35.5677 171.905 35.0911C172.541 34.6144 173.323 34.3708 174.118 34.4011C174.462 34.3999 174.804 34.4371 175.14 34.512V37.2933C174.706 37.1611 174.253 37.1004 173.8 37.1136C173.367 37.0961 172.935 37.1722 172.534 37.3368C172.133 37.5015 171.773 37.7506 171.478 38.0673C171.182 38.3839 170.959 38.7605 170.824 39.1711C170.689 39.5818 170.644 40.0168 170.693 40.4464V49.0386H167.711L167.711 34.5527Z" fill="black"/>
<path d="M188.888 44.7838C188.487 47.4134 185.919 49.2181 182.633 49.2181C178.408 49.2181 175.785 46.3947 175.785 41.865C175.785 37.3213 178.422 34.3744 182.508 34.3744C186.527 34.3744 189.055 37.1275 189.055 41.5197V42.5385H178.795V42.7181C178.747 43.2513 178.814 43.7883 178.991 44.2937C179.168 44.799 179.45 45.2611 179.82 45.6491C180.189 46.0372 180.638 46.3424 181.135 46.5445C181.632 46.7466 182.166 46.8409 182.702 46.8213C183.407 46.8871 184.114 46.7244 184.719 46.3572C185.323 45.9901 185.792 45.4383 186.057 44.7838L188.888 44.7838ZM178.809 40.4603H186.071C186.098 39.981 186.025 39.5013 185.857 39.0513C185.689 38.6014 185.43 38.1909 185.095 37.8457C184.761 37.5005 184.358 37.228 183.913 37.0452C183.468 36.8625 182.989 36.7735 182.508 36.7838C182.022 36.7809 181.541 36.8739 181.092 37.0575C180.643 37.2411 180.234 37.5116 179.89 37.8534C179.546 38.1952 179.274 38.6016 179.088 39.049C178.902 39.4965 178.807 39.9761 178.809 40.4603V40.4603Z" fill="black"/>
<path d="M72.3289 18.2508H73.6091C73.8294 18.2782 74.0531 18.2597 74.266 18.1966C74.4788 18.1335 74.6763 18.0271 74.8459 17.8841C75.0154 17.7411 75.1535 17.5647 75.2513 17.3659C75.3491 17.167 75.4045 16.9502 75.4141 16.7289C75.4141 15.8485 74.7498 15.2797 73.6232 15.2797C73.3974 15.2483 73.1676 15.2622 72.9473 15.3208C72.727 15.3794 72.5208 15.4814 72.3407 15.6208C72.1606 15.7601 72.0103 15.9341 71.8988 16.1323C71.7872 16.3306 71.7166 16.5491 71.6912 16.775H70.2857C70.3098 16.365 70.4184 15.9642 70.6047 15.5978C70.7909 15.2314 71.0508 14.9071 71.3681 14.6452C71.6854 14.3833 72.0535 14.1893 72.4492 14.0753C72.845 13.9614 73.2601 13.9299 73.6686 13.9828C75.5535 13.9828 76.8808 15.0352 76.8808 16.55C76.8852 17.0575 76.7149 17.5512 76.3984 17.9486C76.0818 18.346 75.6382 18.6231 75.1415 18.7336V18.8461C75.7303 18.8722 76.2849 19.1296 76.6839 19.5622C77.0829 19.9948 77.294 20.5674 77.2709 21.1547C77.2273 21.5769 77.0997 21.9862 76.8954 22.3586C76.6911 22.731 76.4144 23.059 76.0814 23.3234C75.7483 23.5877 75.3657 23.7831 74.956 23.8981C74.5463 24.0131 74.1177 24.0453 73.6953 23.993C73.272 24.0505 72.8414 24.0225 72.4292 23.9106C72.017 23.7986 71.6317 23.6051 71.2961 23.3415C70.9605 23.0779 70.6816 22.7495 70.476 22.3761C70.2703 22.0027 70.1422 21.5919 70.0992 21.168H71.5267C71.6129 22.0813 72.4543 22.6704 73.6953 22.6704C74.9362 22.6704 75.7463 22.0087 75.7463 21.0759C75.7463 20.1298 74.9832 19.547 73.6498 19.547H72.3289V18.2508Z" fill="black"/>
<path d="M78.8929 21.7238C78.8929 20.427 79.8628 19.6793 81.5801 19.5731L83.5372 19.4606V18.8387C83.5372 18.0777 83.0342 17.6481 82.0581 17.6481C81.2621 17.6481 80.7121 17.9395 80.5523 18.4489H79.1719C79.3176 17.2113 80.4865 16.4176 82.1254 16.4176C83.9368 16.4176 84.9584 17.3168 84.9584 18.8387V23.7613H83.5842V22.7488H83.4714C83.2424 23.112 82.9209 23.4081 82.5396 23.6069C82.1583 23.8056 81.731 23.8999 81.3013 23.88C80.998 23.9115 80.6914 23.8792 80.4014 23.7853C80.1113 23.6914 79.8443 23.5379 79.6174 23.3348C79.3905 23.1316 79.2088 22.8833 79.084 22.6058C78.9592 22.3284 78.8941 22.0279 78.8929 21.7238ZM83.5372 21.1082V20.5059L81.7728 20.6184C80.7778 20.6848 80.3266 21.0223 80.3266 21.6574C80.3266 22.3059 80.8906 22.6832 81.6663 22.6832C81.8936 22.7062 82.1232 22.6833 82.3414 22.6159C82.5596 22.5486 82.762 22.4382 82.9366 22.2912C83.1111 22.1443 83.2543 21.9638 83.3574 21.7606C83.4606 21.5573 83.5218 21.3355 83.5372 21.1082Z" fill="black"/>
<path d="M88.7422 17.7532V23.761H87.3164V16.5563H92.0735V17.7531L88.7422 17.7532Z" fill="black"/>
<path d="M100.715 20.1562C100.715 22.4453 99.5539 23.8805 97.7301 23.8805C97.2823 23.9109 96.8352 23.8132 96.4413 23.5988C96.0474 23.3845 95.7231 23.0623 95.5066 22.6703H95.3938V26.157H93.968V16.557H95.3406V17.7477H95.4471C95.6675 17.342 95.996 17.0049 96.3964 16.7737C96.7967 16.5425 97.2534 16.4262 97.716 16.4375C99.5539 16.4375 100.715 17.8664 100.715 20.1562ZM99.2484 20.1562C99.2484 18.6344 98.526 17.7148 97.318 17.7148C96.1178 17.7148 95.3672 18.6539 95.3672 20.1625C95.3672 21.6641 96.1177 22.6039 97.3117 22.6039C98.526 22.6039 99.2484 21.6843 99.2484 20.1562Z" fill="black"/>
<path d="M102.614 26.3414V25.1172C102.768 25.1368 102.924 25.1456 103.079 25.1438C103.383 25.1662 103.684 25.076 103.925 24.8904C104.167 24.7049 104.331 24.437 104.386 24.1383L104.492 23.7875L101.877 16.5563H103.43L105.242 22.2789H105.354L107.159 16.5563H108.671L105.978 24.0586C105.361 25.8117 104.677 26.3743 103.205 26.3743C103.085 26.3742 102.747 26.361 102.614 26.3414Z" fill="black"/>
<path d="M109.783 21.717H111.202C111.342 22.3522 111.939 22.6834 112.774 22.6834C113.724 22.6834 114.306 22.2662 114.306 21.6178C114.306 20.9233 113.783 20.592 112.774 20.592H111.693V19.4873H112.755C113.617 19.4873 114.056 19.1569 114.056 18.5545C114.056 18.0256 113.631 17.6217 112.755 17.6217C111.958 17.6217 111.375 17.9592 111.282 18.528H109.908C110.011 17.8744 110.367 17.2872 110.899 16.8926C111.432 16.498 112.098 16.3275 112.755 16.4178C114.472 16.4178 115.455 17.192 115.455 18.4092C115.463 18.7482 115.354 19.0796 115.146 19.3481C114.939 19.6166 114.645 19.8058 114.314 19.8842V19.9967C114.708 20.0474 115.07 20.2404 115.33 20.5393C115.591 20.8381 115.732 21.2219 115.728 21.6178C115.728 22.9874 114.559 23.8936 112.774 23.8936C111.196 23.8935 109.914 23.1725 109.783 21.717Z" fill="black"/>
<path d="M117.78 23.761V16.5563H119.194V21.5118H119.307L122.636 16.5563H124.05V23.761H122.636V18.779H122.53L119.194 23.761L117.78 23.761Z" fill="black"/>
<path d="M131.836 17.7543H129.561V23.7621H128.134V17.7543H125.859V16.5575H131.836V17.7543Z" fill="black"/>
<path d="M139.517 21.8162C139.323 22.4746 138.902 23.044 138.33 23.425C137.757 23.806 137.069 23.9743 136.385 23.9005C135.909 23.9131 135.436 23.8222 134.998 23.6341C134.561 23.4461 134.17 23.1654 133.853 22.8116C133.535 22.4577 133.299 22.0393 133.159 21.5851C133.02 21.131 132.982 20.6522 133.047 20.1818C132.984 19.71 133.023 19.2301 133.162 18.7746C133.3 18.3191 133.536 17.8987 133.851 17.5418C134.167 17.1849 134.556 16.8998 134.992 16.7059C135.428 16.5119 135.901 16.4137 136.378 16.4177C138.389 16.4177 139.603 17.7873 139.603 20.0497V20.5459H134.501V20.6256C134.479 20.89 134.512 21.1562 134.599 21.4072C134.685 21.6581 134.824 21.8881 135.005 22.0825C135.186 22.2769 135.406 22.4313 135.651 22.5359C135.895 22.6404 136.159 22.6928 136.425 22.6896C136.766 22.7302 137.111 22.6689 137.417 22.5133C137.723 22.3578 137.976 22.1151 138.143 21.8161L139.517 21.8162ZM134.501 19.4943H138.149C138.167 19.2526 138.134 19.0099 138.052 18.7816C137.971 18.5533 137.842 18.3446 137.675 18.1689C137.508 17.9931 137.305 17.8542 137.081 17.761C136.856 17.6679 136.615 17.6225 136.372 17.6279C136.125 17.6246 135.881 17.6705 135.652 17.7632C135.423 17.8558 135.216 17.9932 135.041 18.1671C134.867 18.3411 134.729 18.5482 134.637 18.7762C134.544 19.0041 134.498 19.2483 134.501 19.4943H134.501Z" fill="black"/>
<path d="M145.561 16.5563H148.819C150.232 16.5563 151.061 17.2703 151.061 18.3883C151.063 18.743 150.943 19.0877 150.721 19.3648C150.498 19.6418 150.188 19.8343 149.84 19.9101V20.0226C150.262 20.0492 150.658 20.2364 150.945 20.5455C151.233 20.8546 151.39 21.262 151.385 21.6836C151.385 22.9406 150.437 23.7609 148.851 23.7609H145.561V16.5563ZM146.974 17.6477V19.5133H148.388C149.249 19.5133 149.662 19.1828 149.662 18.5734C149.662 18.0117 149.303 17.6477 148.546 17.6477L146.974 17.6477ZM146.974 20.5586V22.6696H148.665C149.508 22.6696 149.959 22.2985 149.959 21.6172C149.959 20.8961 149.448 20.5586 148.486 20.5586L146.974 20.5586Z" fill="black"/>
<rect x="0.5" y="0.5" width="216.6" height="63" rx="8.5" stroke="black"/>
</svg>
