
<svg width="219" height="64" viewBox="0 0 219 64" fill="none" xmlns="http://www.w3.org/2000/svg">
<path d="M109.668 34.7329C108.363 34.736 107.088 35.126 106.005 35.8535C104.922 36.581 104.078 37.6134 103.582 38.8201C103.085 40.0269 102.958 41.3537 103.215 42.633C103.473 43.9122 104.104 45.0863 105.029 46.0068C105.954 46.9274 107.131 47.553 108.411 47.8046C109.692 48.0561 111.018 47.9224 112.222 47.4202C113.427 46.918 114.455 46.0699 115.178 44.9832C115.9 43.8966 116.284 42.6201 116.281 41.3152C116.294 40.4447 116.131 39.5805 115.803 38.7742C115.474 37.9678 114.987 37.2358 114.37 36.6217C113.753 36.0075 113.019 35.5238 112.211 35.1993C111.403 34.8748 110.538 34.7162 109.668 34.7329ZM109.668 45.3109C108.868 45.3669 108.07 45.1809 107.377 44.7772C106.684 44.3735 106.129 43.7708 105.784 43.0473C105.438 42.3239 105.318 41.5132 105.439 40.7207C105.56 39.9281 105.917 39.1904 106.463 38.6033C107.009 38.0163 107.719 37.6071 108.501 37.429C109.283 37.2508 110.1 37.312 110.847 37.6045C111.593 37.8969 112.234 38.4072 112.687 39.069C113.14 39.7308 113.383 40.5134 113.385 41.3152C113.41 41.8232 113.333 42.331 113.158 42.8088C112.984 43.2866 112.715 43.7246 112.369 44.097C112.023 44.4694 111.605 44.7687 111.141 44.9772C110.677 45.1857 110.176 45.2992 109.668 45.3109ZM95.2334 34.7329C93.9285 34.736 92.6538 35.126 91.5705 35.8535C90.4872 36.581 89.644 37.6134 89.1475 38.8201C88.6509 40.0269 88.5234 41.3537 88.781 42.633C89.0386 43.9122 89.6697 45.0863 90.5945 46.0068C91.5194 46.9274 92.6965 47.553 93.9769 47.8046C95.2573 48.0561 96.5836 47.9224 97.788 47.4202C98.9924 46.918 100.021 46.0699 100.743 44.9832C101.466 43.8966 101.85 42.6201 101.847 41.3152C101.859 40.4447 101.697 39.5805 101.368 38.7742C101.04 37.9678 100.553 37.2358 99.9358 36.6217C99.3187 36.0075 98.5844 35.5238 97.7766 35.1993C96.9687 34.8748 96.1038 34.7162 95.2334 34.7329ZM95.2334 45.3109C94.4335 45.3669 93.6354 45.1809 92.9427 44.7772C92.25 44.3735 91.6947 43.7708 91.3491 43.0473C91.0035 42.3239 90.8835 41.5132 91.0047 40.7207C91.126 39.9281 91.4828 39.1904 92.0289 38.6033C92.575 38.0163 93.2851 37.6071 94.0668 37.429C94.8485 37.2508 95.6657 37.312 96.4122 37.6045C97.1588 37.8969 97.8 38.4072 98.2527 39.069C98.7053 39.7308 98.9484 40.5134 98.9504 41.3152C98.9753 41.8232 98.8983 42.331 98.7238 42.8088C98.5494 43.2866 98.281 43.7246 97.9346 44.097C97.5882 44.4694 97.1707 44.7687 96.7068 44.9772C96.2428 45.1857 95.7418 45.2992 95.2334 45.3109ZM78.0731 36.7618V39.5496H84.7638C84.6589 40.8626 84.113 42.1016 83.215 43.0653C82.5439 43.749 81.7366 44.2843 80.8456 44.6365C79.9545 44.9887 78.9994 45.1498 78.0422 45.1096C76.0705 45.1096 74.1797 44.3264 72.7855 42.9322C71.3914 41.5381 70.6081 39.6472 70.6081 37.6756C70.6081 35.704 71.3914 33.8131 72.7855 32.4189C74.1797 31.0248 76.0705 30.2416 78.0422 30.2416C79.9323 30.2134 81.7575 30.9312 83.1221 32.2394L85.089 30.2725C84.1659 29.3595 83.0699 28.64 81.8652 28.156C80.6605 27.6719 79.3713 27.4332 78.0731 27.4538C76.6963 27.4002 75.3228 27.6251 74.0349 28.1151C72.7471 28.605 71.5714 29.3499 70.5783 30.3051C69.5852 31.2603 68.7952 32.4061 68.2556 33.6739C67.7159 34.9417 67.4377 36.3054 67.4377 37.6833C67.4377 39.0612 67.7159 40.4249 68.2556 41.6927C68.7952 42.9606 69.5852 44.1064 70.5783 45.0616C71.5714 46.0168 72.7471 46.7616 74.0349 47.2516C75.3228 47.7415 76.6963 47.9664 78.0731 47.9129C79.398 47.9658 80.719 47.7378 81.9495 47.244C83.18 46.7502 84.2922 46.0017 85.2129 45.0477C86.8393 43.261 87.7059 40.9112 87.629 38.4964C87.6345 37.9152 87.5879 37.3347 87.4896 36.7618H78.0731ZM148.247 38.9301C147.843 37.7418 147.088 36.7042 146.081 35.9547C145.075 35.2052 143.864 34.7791 142.61 34.7329C141.763 34.7313 140.924 34.9034 140.146 35.2387C139.368 35.5739 138.667 36.0652 138.086 36.6821C137.506 37.299 137.058 38.0285 136.77 38.8254C136.483 39.6222 136.362 40.4696 136.415 41.3152C136.402 42.7289 136.846 44.1091 137.682 45.2494C138.518 46.3897 139.7 47.2291 141.052 47.642C142.404 48.055 143.854 48.0195 145.184 47.5407C146.514 47.0619 147.654 46.1656 148.433 44.9857L146.187 43.437C145.853 43.9949 145.378 44.4557 144.81 44.7736C144.242 45.0914 143.601 45.2553 142.951 45.249C142.279 45.2767 141.615 45.1007 141.046 44.7442C140.476 44.3876 140.028 43.8671 139.76 43.2511L148.573 39.6115L148.247 38.9301ZM139.264 41.1293C139.233 40.6482 139.298 40.1657 139.455 39.71C139.613 39.2544 139.86 38.8347 140.181 38.4755C140.503 38.1164 140.893 37.8251 141.329 37.6186C141.764 37.4121 142.237 37.2945 142.718 37.2729C143.217 37.2424 143.714 37.3599 144.147 37.6106C144.579 37.8613 144.928 38.2341 145.15 38.6823L139.264 41.1293ZM132.109 47.5102H135.005V28.1507H132.109V47.5102ZM127.37 36.2043H127.262C126.829 35.7115 126.295 35.3181 125.696 35.0508C125.098 34.7835 124.448 34.6486 123.792 34.6555C122.1 34.7376 120.504 35.4677 119.335 36.6946C118.166 37.9214 117.514 39.551 117.514 41.2455C117.514 42.94 118.166 44.5695 119.335 45.7964C120.504 47.0232 122.1 47.7533 123.792 47.8354C124.449 47.8486 125.1 47.7166 125.7 47.4489C126.3 47.1811 126.833 46.7843 127.262 46.2867H127.37V47.2314C127.37 49.7559 126.023 51.1033 123.854 51.1033C123.13 51.0874 122.427 50.8566 121.834 50.4402C121.241 50.0238 120.785 49.4406 120.525 48.7647L118.016 49.8023C118.479 50.9674 119.286 51.9642 120.328 52.6611C121.371 53.358 122.6 53.722 123.854 53.7052C127.246 53.7052 130.049 51.7073 130.049 46.8442V35.1201H127.37V36.2043ZM124.04 45.3109C123.025 45.2477 122.073 44.8 121.377 44.059C120.681 43.3181 120.293 42.3396 120.293 41.3229C120.293 40.3062 120.681 39.3277 121.377 38.5868C122.073 37.8458 123.025 37.3981 124.04 37.3349C124.536 37.3563 125.023 37.4772 125.471 37.6905C125.919 37.9038 126.32 38.2051 126.65 38.5765C126.979 38.9478 127.23 39.3816 127.389 39.8521C127.547 40.3226 127.609 40.8202 127.571 41.3152C127.614 41.8118 127.555 42.3119 127.398 42.7852C127.242 43.2584 126.991 43.695 126.661 44.0685C126.331 44.442 125.928 44.7447 125.478 44.9583C125.027 45.1718 124.538 45.2918 124.04 45.3109ZM161.814 28.1507H154.876V47.5102H157.772V40.1691H161.814C162.64 40.2284 163.469 40.117 164.249 39.8419C165.03 39.5667 165.745 39.1338 166.351 38.57C166.956 38.0062 167.44 37.3236 167.77 36.5649C168.1 35.8061 168.271 34.9874 168.271 34.1599C168.271 33.3324 168.1 32.5137 167.77 31.7549C167.44 30.9962 166.956 30.3136 166.351 29.7498C165.745 29.186 165.03 28.7531 164.249 28.4779C163.469 28.2028 162.64 28.0914 161.814 28.1507ZM161.814 37.4433H157.772V30.8456H161.876C162.312 30.8456 162.743 30.9313 163.145 31.0979C163.547 31.2644 163.912 31.5085 164.22 31.8163C164.528 32.1241 164.772 32.4894 164.938 32.8916C165.105 33.2937 165.191 33.7247 165.191 34.1599C165.191 34.5951 165.105 35.0261 164.938 35.4282C164.772 35.8304 164.528 36.1957 164.22 36.5035C163.912 36.8113 163.547 37.0554 163.145 37.222C162.743 37.3885 162.312 37.4742 161.876 37.4742L161.814 37.4433ZM179.687 34.671C178.632 34.606 177.582 34.8515 176.665 35.3773C175.748 35.903 175.006 36.6859 174.53 37.6291L177.085 38.6978C177.343 38.2322 177.731 37.8514 178.201 37.6013C178.671 37.3512 179.203 37.2425 179.733 37.2884C180.101 37.2455 180.474 37.2762 180.829 37.3787C181.185 37.4813 181.517 37.6537 181.805 37.8858C182.093 38.1179 182.333 38.4051 182.509 38.7306C182.685 39.0562 182.794 39.4135 182.831 39.7819V39.9677C181.9 39.4782 180.863 39.223 179.811 39.2243C177.054 39.2243 174.235 40.7731 174.235 43.5918C174.263 44.191 174.41 44.7785 174.669 45.3195C174.928 45.8606 175.292 46.3441 175.742 46.7414C176.191 47.1387 176.716 47.4416 177.284 47.6322C177.853 47.8228 178.454 47.8972 179.052 47.8509C179.779 47.8911 180.503 47.7373 181.151 47.4053C181.799 47.0732 182.346 46.5749 182.738 45.9614H182.831V47.5102H185.619V40.0607C185.619 36.6689 183.048 34.702 179.749 34.702L179.687 34.671ZM179.331 45.28C178.386 45.28 177.07 44.7999 177.07 43.6383C177.07 42.0895 178.711 41.563 180.167 41.563C181.087 41.5403 181.996 41.7649 182.8 42.2134C182.703 43.0545 182.304 43.8318 181.677 44.4014C181.051 44.9709 180.239 45.2941 179.393 45.3109L179.331 45.28ZM195.779 35.1201L192.464 43.5144H192.371L188.933 35.1201H185.836L190.993 46.8597L188.05 53.38H191.07L199 35.1201H195.779ZM169.76 47.5102H172.64V28.1507H169.76V47.5102Z" fill="black"/>
<path d="M20.303 12.7247C19.7927 13.3282 19.5323 14.1039 19.5751 14.893V49.1515C19.5224 49.942 19.784 50.7212 20.303 51.3198L20.4114 51.4437L39.6005 32.2546V31.7899L20.4114 12.6163L20.303 12.7247Z" fill="url(#paint0_linear_603_6901)"/>
<path d="M45.9509 38.6514L39.601 32.255V31.7904L45.9509 25.394L46.0902 25.487L53.6946 29.7925C55.8629 31.016 55.8629 33.0294 53.6946 34.2684L46.1212 38.574L45.9509 38.6514Z" fill="url(#paint1_linear_603_6901)"/>
<path d="M46.1375 38.5581L39.6018 32.0223L20.3043 51.3198C20.7419 51.7094 21.3021 51.9335 21.8876 51.9533C22.4732 51.9731 23.0472 51.7874 23.5102 51.4283L46.1375 38.5581Z" fill="url(#paint2_linear_603_6901)"/>
<path d="M46.1375 25.487L23.5102 12.6323C23.0502 12.2682 22.4767 12.0779 21.8903 12.0949C21.3039 12.1119 20.7423 12.3351 20.3043 12.7252L39.6018 32.0227L46.1375 25.487Z" fill="url(#paint3_linear_603_6901)"/>
<path opacity="0.2" d="M45.9517 38.4185L23.5102 51.1957C23.0641 51.5324 22.5204 51.7145 21.9614 51.7145C21.4025 51.7145 20.8588 51.5324 20.4127 51.1957L20.3043 51.3041L20.4127 51.428C20.8588 51.7647 21.4025 51.9469 21.9614 51.9469C22.5204 51.9469 23.0641 51.7647 23.5102 51.428L46.1375 38.5578L45.9517 38.4185Z" fill="black"/>
<path opacity="0.12" d="M20.3042 51.1033C19.8067 50.489 19.5629 49.7078 19.6227 48.9196V49.1519C19.57 49.9423 19.8316 50.7216 20.3506 51.3201L20.459 51.2117L20.3042 51.1033Z" fill="black"/>
<path opacity="0.12" d="M53.6948 34.0357L45.951 38.4187L46.0904 38.5581L53.6948 34.2525C54.1437 34.0627 54.5331 33.7554 54.822 33.3629C55.1109 32.9705 55.2886 32.5073 55.3365 32.0223C55.2397 32.4631 55.0406 32.8749 54.7555 33.2246C54.4703 33.5743 54.107 33.8522 53.6948 34.0357Z" fill="black"/>
<path opacity="0.25" d="M23.5099 12.8487L53.6951 30.0089C54.1073 30.1924 54.4707 30.4703 54.7558 30.82C55.041 31.1697 55.24 31.5815 55.3368 32.0223C55.289 31.5373 55.1112 31.0741 54.8223 30.6817C54.5334 30.2892 54.144 29.9818 53.6951 29.792L23.5099 12.6318C21.3571 11.3928 19.576 12.415 19.576 14.893V15.1253C19.6225 12.6473 21.3571 11.6251 23.5099 12.8487Z" fill="white"/>
<path d="M69.3518 23.1481H68.2213V20.0506H69.1815C69.6135 19.5816 69.9384 19.0242 70.1336 18.4172C70.3288 17.8101 70.3897 17.1679 70.3121 16.5349V11.8887H76.5071V20.0351H77.5448V23.1326H76.3987V21.1812H69.3518V23.1481ZM71.5046 16.5349C71.5737 17.779 71.2661 19.0151 70.6218 20.0816H75.2681V13.0348H71.5046V16.5349Z" fill="black"/>
<path d="M86.8535 19.973C86.4075 20.4202 85.8777 20.775 85.2943 21.0171C84.711 21.2592 84.0856 21.3838 83.454 21.3838C82.8224 21.3838 82.197 21.2592 81.6137 21.0171C81.0303 20.775 80.5005 20.4202 80.0545 19.973C79.1685 19.0476 78.6739 17.8159 78.6739 16.5347C78.6739 15.2536 79.1685 14.0219 80.0545 13.0965C80.5005 12.6493 81.0303 12.2945 81.6137 12.0524C82.197 11.8103 82.8224 11.6857 83.454 11.6857C84.0856 11.6857 84.711 11.8103 85.2943 12.0524C85.8777 12.2945 86.4075 12.6493 86.8535 13.0965C87.3009 13.5487 87.6534 14.0859 87.8901 14.6764C88.1268 15.2668 88.243 15.8987 88.2319 16.5347C88.2502 17.1717 88.1373 17.8057 87.9002 18.3972C87.6631 18.9886 87.3068 19.525 86.8535 19.973ZM80.9218 19.1986C81.2481 19.5375 81.6406 19.8059 82.0748 19.987C82.509 20.1682 82.9758 20.2583 83.4463 20.2517C83.9171 20.2611 84.3847 20.1723 84.8194 19.9909C85.254 19.8096 85.6461 19.5398 85.9707 19.1986C86.639 18.4724 87.0099 17.5216 87.0099 16.5347C87.0099 15.5479 86.639 14.597 85.9707 13.8709C85.6461 13.5297 85.254 13.2598 84.8194 13.0785C84.3847 12.8972 83.9171 12.8084 83.4463 12.8177C82.9758 12.8112 82.509 12.9013 82.0748 13.0824C81.6406 13.2636 81.2481 13.5319 80.9218 13.8709C80.2633 14.6019 79.899 15.5509 79.899 16.5347C79.899 17.5186 80.2633 18.4676 80.9218 19.1986Z" fill="black"/>
<path d="M94.24 21.3828C93.6134 21.3926 92.9912 21.2756 92.411 21.0387C91.8307 20.8018 91.3044 20.45 90.8637 20.0044C89.9701 19.0705 89.4713 17.8278 89.4713 16.5352C89.4713 15.2426 89.9701 13.9999 90.8637 13.066C91.3116 12.6127 91.848 12.2565 92.4395 12.0193C93.031 11.7822 93.665 11.6693 94.302 11.6876C94.9503 11.6692 95.5943 11.7992 96.1848 12.0676C96.7753 12.336 97.2967 12.7358 97.7092 13.2363L96.8884 14.0417C96.5841 13.6505 96.1904 13.338 95.7404 13.1305C95.2903 12.923 94.797 12.8265 94.302 12.8492C93.8252 12.837 93.3511 12.9228 92.9088 13.1013C92.4666 13.2798 92.0657 13.5471 91.731 13.8868C91.0639 14.6197 90.6942 15.5751 90.6942 16.5662C90.6942 17.5572 91.0639 18.5126 91.731 19.2455C92.0657 19.5852 92.4666 19.8525 92.9088 20.031C93.3511 20.2095 93.8252 20.2953 94.302 20.2832C94.8341 20.2681 95.3566 20.1369 95.8327 19.8988C96.3089 19.6607 96.7273 19.3215 97.0587 18.9048L97.8951 19.7256C97.4708 20.2341 96.9427 20.646 96.3463 20.9337C95.6875 21.2415 94.9671 21.3951 94.24 21.3828Z" fill="black"/>
<path d="M102.759 21.1812H101.566V13.0348H98.9642V11.8887H105.345V13.0348H102.759V21.1812Z" fill="black"/>
<path d="M113.553 11.8887L110.037 19.7254C109.952 20.0396 109.8 20.3315 109.59 20.5809C109.381 20.8303 109.12 21.0311 108.825 21.1696C108.531 21.3081 108.209 21.3809 107.884 21.3829C107.558 21.3849 107.236 21.3161 106.94 21.1812L107.25 20.0816C107.439 20.1881 107.652 20.2466 107.869 20.252C108.098 20.2635 108.325 20.204 108.52 20.0816C108.708 19.9251 108.852 19.7222 108.938 19.4931L109.278 18.7497L106.181 11.8887H107.59L109.882 17.2164L112.144 11.8887H113.553Z" fill="black"/>
<path d="M114.9 21.1812V11.8887H121.622V21.1812H120.429V13.0348H116.093V21.1812H114.9Z" fill="black"/>
<path d="M123.744 21.1812V11.8887H124.936V15.869H129.582V11.8887H130.79V21.1812H129.582V16.9841H124.936V21.1812H123.744Z" fill="black"/>
<path d="M140.517 19.973C140.07 20.4207 139.539 20.7758 138.954 21.0181C138.37 21.2604 137.743 21.3851 137.11 21.3851C136.477 21.3851 135.851 21.2604 135.266 21.0181C134.681 20.7758 134.15 20.4207 133.703 19.973C132.817 19.0476 132.322 17.8159 132.322 16.5347C132.322 15.2536 132.817 14.0219 133.703 13.0965C134.149 12.6493 134.679 12.2945 135.262 12.0524C135.845 11.8103 136.471 11.6857 137.102 11.6857C137.734 11.6857 138.359 11.8103 138.943 12.0524C139.526 12.2945 140.056 12.6493 140.502 13.0965C141.381 14.0255 141.871 15.2558 141.871 16.5347C141.871 17.8137 141.381 19.044 140.502 19.973H140.517ZM134.586 19.1986C134.91 19.5398 135.302 19.8096 135.737 19.9909C136.172 20.1723 136.639 20.2611 137.11 20.2517C137.581 20.2583 138.047 20.1682 138.482 19.987C138.916 19.8059 139.308 19.5375 139.635 19.1986C140.293 18.4676 140.657 17.5186 140.657 16.5347C140.657 15.5509 140.293 14.6019 139.635 13.8709C139.308 13.5319 138.916 13.2636 138.482 13.0824C138.047 12.9013 137.581 12.8112 137.11 12.8177C136.639 12.8084 136.172 12.8972 135.737 13.0785C135.302 13.2598 134.91 13.5297 134.586 13.8709C133.917 14.597 133.546 15.5479 133.546 16.5347C133.546 17.5216 133.917 18.4724 134.586 19.1986Z" fill="black"/>
<path d="M146.759 21.1813V11.8888H150.119C150.816 11.8818 151.49 12.136 152.009 12.6012C152.268 12.8258 152.474 13.1046 152.613 13.4177C152.752 13.7308 152.821 14.0707 152.814 14.4133C152.818 14.8305 152.7 15.2397 152.474 15.5903C152.245 15.9229 151.929 16.1856 151.56 16.3492C152.007 16.5021 152.4 16.782 152.69 17.1546C152.975 17.5341 153.127 17.9966 153.124 18.471C153.132 18.8281 153.061 19.1825 152.917 19.509C152.772 19.8356 152.557 20.1263 152.288 20.3605C151.75 20.8607 151.039 21.1328 150.305 21.1194L146.759 21.1813ZM147.951 15.8691H150.119C150.322 15.8809 150.525 15.8465 150.713 15.7688C150.901 15.691 151.068 15.5717 151.204 15.42C151.466 15.1626 151.617 14.8119 151.622 14.4443C151.636 14.0754 151.509 13.7151 151.266 13.4376C151.135 13.2931 150.975 13.1793 150.795 13.1044C150.616 13.0294 150.422 12.9951 150.228 13.0039H147.998L147.951 15.8691ZM147.951 20.0353H150.367C150.577 20.0423 150.786 20.0029 150.978 19.9199C151.171 19.8369 151.343 19.7124 151.482 19.5552C151.75 19.2695 151.899 18.8933 151.901 18.502C151.891 18.114 151.736 17.7437 151.467 17.4643C151.318 17.3076 151.137 17.1838 150.937 17.1011C150.737 17.0185 150.522 16.9786 150.305 16.9842H147.951V20.0353Z" fill="black"/>
<rect x="1.10004" y="0.5" width="216.6" height="63" rx="8.5" stroke="black"/>
<defs>
<linearGradient id="paint0_linear_603_6901" x1="37.8969" y1="14.5368" x2="11.9088" y2="40.5249" gradientUnits="userSpaceOnUse">
<stop stop-color="#00A0FF"/>
<stop offset="0.01" stop-color="#00A1FF"/>
<stop offset="0.26" stop-color="#00BEFF"/>
<stop offset="0.51" stop-color="#00D2FF"/>
<stop offset="0.76" stop-color="#00DFFF"/>
<stop offset="1" stop-color="#00E3FF"/>
</linearGradient>
<linearGradient id="paint1_linear_603_6901" x1="56.5289" y1="32.0227" x2="19.0644" y2="32.0227" gradientUnits="userSpaceOnUse">
<stop stop-color="#FFE000"/>
<stop offset="0.41" stop-color="#FFBD00"/>
<stop offset="0.78" stop-color="#FFA500"/>
<stop offset="1" stop-color="#FF9C00"/>
</linearGradient>
<linearGradient id="paint2_linear_603_6901" x1="42.5909" y1="35.5845" x2="7.34116" y2="70.8187" gradientUnits="userSpaceOnUse">
<stop stop-color="#FF3A44"/>
<stop offset="1" stop-color="#C31162"/>
</linearGradient>
<linearGradient id="paint3_linear_603_6901" x1="15.4412" y1="1.32637" x2="31.1765" y2="17.0617" gradientUnits="userSpaceOnUse">
<stop stop-color="#32A071"/>
<stop offset="0.07" stop-color="#2DA771"/>
<stop offset="0.48" stop-color="#15CF74"/>
<stop offset="0.8" stop-color="#06E775"/>
<stop offset="1" stop-color="#00F076"/>
</linearGradient>
</defs>
</svg>
