
<svg width="218" height="64" viewBox="0 0 218 64" fill="none" xmlns="http://www.w3.org/2000/svg">
<path d="M82.8835 43.1772H75.6589L73.8938 47.9602H70.7331L77.7935 30.0139H80.79L88.0146 47.9602H84.6897L82.8835 43.1772ZM76.562 40.7244H81.9394L80.0101 35.5736C79.7638 34.8786 79.4765 34.061 79.2302 33.2025C78.9839 33.9793 78.7376 34.756 78.4913 35.5327L76.562 40.7244Z" fill="black"/>
<path d="M89.2871 37.8626C89.2871 36.8815 89.2461 35.7777 89.205 34.5922H92.0785C92.2016 35.1645 92.2427 35.6959 92.2837 36.2683C93.4741 34.9601 94.8287 34.306 96.3886 34.306C97.2917 34.306 98.1126 34.5104 98.8926 34.9601C99.6725 35.4098 100.288 36.1047 100.74 37.0859C101.191 38.067 101.438 39.2934 101.438 40.765C101.438 42.3185 101.15 43.6675 100.617 44.7713C100.083 45.875 99.3441 46.7335 98.3589 47.2649C97.4148 47.8373 96.3065 48.1234 95.034 48.1234C94.1309 48.1234 93.2278 47.9599 92.3248 47.6737V53.2743L89.2461 53.5196V37.8626H89.2871ZM97.3738 44.6895C97.9895 43.8719 98.3179 42.6455 98.3179 41.0103C98.3179 39.4978 98.0716 38.4349 97.538 37.7808C97.0043 37.1267 96.3475 36.7588 95.4855 36.7588C94.8698 36.7588 94.3361 36.8815 93.8436 37.1676C93.351 37.4538 92.8584 37.8217 92.4069 38.3123V45.4662C92.6942 45.6298 93.0636 45.7524 93.4741 45.8342C93.8846 45.9159 94.2951 45.9568 94.6645 45.9568C95.8139 45.9568 96.717 45.548 97.3738 44.6895Z" fill="black"/>
<path d="M103.285 37.8626C103.285 36.8815 103.244 35.7777 103.203 34.5922H106.076C106.2 35.1645 106.241 35.6959 106.282 36.2683C107.472 34.9601 108.827 34.306 110.387 34.306C111.29 34.306 112.111 34.5104 112.891 34.9601C113.67 35.4098 114.286 36.1047 114.738 37.0859C115.189 38.067 115.436 39.2934 115.436 40.765C115.436 42.3185 115.148 43.6675 114.615 44.7713C114.081 45.875 113.342 46.7335 112.357 47.2649C111.413 47.8373 110.304 48.1234 109.032 48.1234C108.129 48.1234 107.226 47.9599 106.323 47.6737V53.2743L103.244 53.5196V37.8626H103.285ZM111.372 44.6895C111.987 43.8719 112.316 42.6455 112.316 41.0103C112.316 39.4978 112.07 38.4349 111.536 37.7808C111.002 37.1267 110.345 36.7588 109.483 36.7588C108.868 36.7588 108.334 36.8815 107.842 37.1676C107.349 37.4538 106.856 37.8217 106.405 38.3123V45.4662C106.692 45.6298 107.062 45.7524 107.472 45.8342C107.883 45.9159 108.293 45.9568 108.662 45.9568C109.812 45.9568 110.756 45.548 111.372 44.6895Z" fill="black"/>
<path d="M121.059 47.1015C119.745 46.3657 118.719 45.3437 118.021 43.9538C117.324 42.6047 116.954 40.9695 116.954 39.1299C116.954 37.1268 117.365 35.4099 118.186 34.02C119.007 32.63 120.115 31.5672 121.552 30.8722C122.947 30.1772 124.548 29.8093 126.313 29.8093C127.339 29.8093 128.325 29.932 129.269 30.1364C130.213 30.3816 131.075 30.6678 131.896 31.0766L131.116 33.4476C129.474 32.6709 127.914 32.303 126.436 32.303C125.205 32.303 124.097 32.5892 123.152 33.1206C122.208 33.652 121.469 34.4287 120.977 35.4507C120.443 36.4727 120.197 37.74 120.197 39.1708C120.197 40.4381 120.402 41.5827 120.813 42.5638C121.223 43.545 121.839 44.3217 122.701 44.9349C123.563 45.5072 124.671 45.7933 125.985 45.7933C126.601 45.7933 127.175 45.7525 127.791 45.6298C128.407 45.5072 128.94 45.3845 129.474 45.1801V41.5418H125.328V39.1708H132.47V46.7336C131.444 47.2241 130.377 47.5921 129.228 47.8373C128.078 48.0826 126.97 48.2053 125.862 48.2053C123.973 48.2053 122.414 47.8373 121.059 47.1015Z" fill="black"/>
<path d="M143.266 47.9597C143.143 47.4282 143.101 46.8559 143.06 46.2018C142.568 46.7742 141.993 47.2238 141.213 47.6326C140.474 48.0414 139.612 48.205 138.627 48.205C137.847 48.205 137.149 48.0414 136.534 47.7553C135.918 47.4691 135.384 47.0194 135.015 46.4062C134.645 45.7931 134.44 45.0572 134.44 44.1987C134.44 42.8906 134.892 41.8686 135.836 41.0919C136.78 40.3152 138.34 39.9472 140.515 39.9472C141.336 39.9472 142.157 39.9881 142.937 40.1108V39.8655C142.937 38.68 142.691 37.8624 142.198 37.3718C141.706 36.8812 140.967 36.636 140.023 36.636C139.366 36.636 138.668 36.7177 137.929 36.9221C137.19 37.1265 136.534 37.3309 135.959 37.6171L135.466 35.4096C136 35.1643 136.739 34.919 137.642 34.7146C138.545 34.5102 139.489 34.3876 140.474 34.3876C141.624 34.3876 142.609 34.5511 143.43 34.919C144.251 35.2869 144.867 35.8592 145.318 36.7177C145.77 37.5762 146.016 38.7208 146.016 40.1516V45.466C146.016 46.0383 146.057 46.8559 146.098 47.9597H143.266ZM141.459 45.466C142.116 45.1799 142.609 44.7711 143.019 44.3214V41.8277C142.198 41.7459 141.501 41.7051 140.967 41.7051C139.694 41.7051 138.832 41.9095 138.34 42.3183C137.847 42.7271 137.601 43.2585 137.601 43.9535C137.601 44.6075 137.765 45.0981 138.135 45.4251C138.504 45.7522 138.956 45.9157 139.571 45.9157C140.187 45.9566 140.803 45.7931 141.459 45.466Z" fill="black"/>
<path d="M148.438 44.7711V28.9915L151.476 28.7462V44.2397C151.476 44.812 151.558 45.2208 151.763 45.4661C151.968 45.7114 152.256 45.834 152.707 45.834C152.912 45.834 153.159 45.7931 153.528 45.7114L153.898 47.9189C153.61 48.0415 153.241 48.1233 152.83 48.2051C152.42 48.2868 152.009 48.3277 151.64 48.3277C149.505 48.2051 148.438 47.0604 148.438 44.7711Z" fill="black"/>
<path d="M156.073 44.7711V28.9915L159.11 28.7462V44.2397C159.11 44.812 159.192 45.2208 159.397 45.4661C159.603 45.7114 159.89 45.834 160.342 45.834C160.547 45.834 160.793 45.7931 161.163 45.7114L161.532 47.9189C161.245 48.0415 160.875 48.1233 160.465 48.2051C160.054 48.2868 159.644 48.3277 159.274 48.3277C157.14 48.2051 156.073 47.0604 156.073 44.7711Z" fill="black"/>
<path d="M174.093 41.6644H165.309C165.432 44.4442 166.787 45.875 169.332 45.875C169.947 45.875 170.604 45.7933 171.261 45.6297C171.918 45.4662 172.533 45.2618 173.149 45.0166L173.806 47.1014C172.287 47.8373 170.604 48.2052 168.757 48.2052C167.32 48.2052 166.13 47.919 165.145 47.3876C164.16 46.8561 163.421 46.0794 162.928 45.0574C162.436 44.0354 162.189 42.8499 162.189 41.4191C162.189 39.9474 162.436 38.6802 162.969 37.6173C163.503 36.5544 164.201 35.7368 165.145 35.1645C166.089 34.5922 167.156 34.306 168.388 34.306C169.66 34.306 170.727 34.5922 171.548 35.2054C172.41 35.7777 173.026 36.5953 173.437 37.5764C173.847 38.5575 174.052 39.6613 174.052 40.8468V41.6644H174.093ZM171.097 39.7431C171.056 38.6802 170.768 37.8626 170.276 37.3311C169.783 36.7997 169.167 36.5135 168.346 36.5135C167.567 36.5135 166.91 36.7997 166.417 37.3311C165.884 37.8626 165.555 38.6802 165.391 39.7022H171.097V39.7431Z" fill="black"/>
<path d="M176.392 37.9441C176.392 37.2083 176.351 36.1045 176.31 34.592H179.183C179.224 34.9599 179.265 35.4096 179.306 35.941C179.348 36.4724 179.389 36.8812 179.389 37.2083C179.758 36.636 180.086 36.1454 180.456 35.7366C180.784 35.3278 181.195 35.0008 181.646 34.7555C182.098 34.5102 182.631 34.3876 183.206 34.3876C183.699 34.3876 184.068 34.4285 184.438 34.5511L184.068 37.2083C183.781 37.1265 183.452 37.0856 183.083 37.0856C182.344 37.0856 181.728 37.2492 181.195 37.6171C180.661 37.985 180.086 38.5982 179.471 39.4158V48.0006H176.433V37.9441H176.392Z" fill="black"/>
<path d="M186.162 53.4377C185.71 53.3559 185.341 53.2741 185.054 53.1515L185.628 50.944C185.834 50.9849 186.08 51.0666 186.408 51.1075C186.737 51.1484 187.024 51.1893 187.311 51.1893C188.666 51.1893 189.692 50.3308 190.349 48.573L190.554 48.0824L185.628 34.6329H188.912L191.416 42.1548C191.827 43.4221 192.073 44.4441 192.196 45.0982C192.442 44.1171 192.689 43.1768 193.017 42.1957L195.521 34.592H198.6L193.674 48.1233C193.222 49.3906 192.689 50.4534 192.155 51.2301C191.621 52.0069 190.965 52.5792 190.267 52.988C189.528 53.3559 188.666 53.5603 187.599 53.5603C187.106 53.5603 186.613 53.5194 186.162 53.4377Z" fill="black"/>
<path d="M72.2109 21.7565C71.5131 21.3886 71.0205 20.8163 70.6511 20.1213C70.2817 19.4264 70.1175 18.6088 70.1175 17.6685C70.1175 16.6874 70.3227 15.8289 70.6921 15.0931C71.0616 14.3573 71.6363 13.7849 72.3341 13.417C73.073 13.0082 73.8939 12.8038 74.8791 12.8038C75.8232 12.8038 76.6031 13.0082 77.301 13.3762C77.9578 13.7441 78.4914 14.3164 78.8608 15.0113C79.2303 15.7063 79.3945 16.5239 79.3945 17.4233C79.3945 18.4044 79.1892 19.2629 78.8198 19.9987C78.4503 20.7345 77.8757 21.3068 77.1778 21.6748C76.48 22.0836 75.618 22.288 74.6739 22.288C73.7297 22.3288 72.9088 22.1244 72.2109 21.7565ZM76.3979 20.6119C76.8494 20.3257 77.1778 19.9169 77.4241 19.3855C77.6294 18.8541 77.7525 18.2409 77.7525 17.5868C77.7525 16.9327 77.6704 16.3195 77.4652 15.8289C77.2599 15.2975 76.9726 14.8887 76.5211 14.6025C76.0695 14.2755 75.5359 14.1529 74.8381 14.1529C74.1813 14.1529 73.6476 14.3164 73.1961 14.6025C72.7446 14.9296 72.4162 15.3384 72.1699 15.8698C71.9236 16.4013 71.8415 16.9736 71.8415 17.6277C71.8415 18.2817 71.9646 18.8949 72.1699 19.4264C72.3751 19.9578 72.7035 20.3666 73.1551 20.6936C73.6066 21.0207 74.1402 21.1433 74.797 21.1433C75.3717 21.0616 75.9464 20.9389 76.3979 20.6119Z" fill="black"/>
<path d="M82.6383 14.2743H79.7649L79.888 12.9253H87.1537L86.9895 14.2743H84.2392V22.205H82.6383V14.2743Z" fill="black"/>
<path d="M95.7728 22.2062H93.9666L91.2163 18.1182H90.108V22.2062H88.5071V12.9674H90.108V16.7692H90.929L92.8583 13.9893C93.1456 13.5806 93.433 13.2944 93.7203 13.09C94.0077 12.8856 94.3771 12.8038 94.7876 12.8038C95.157 12.8038 95.4854 12.8447 95.7317 12.9674L95.4033 14.1937C95.2391 14.112 95.0749 14.0711 94.9107 14.0711C94.7055 14.0711 94.5413 14.112 94.4182 14.1937C94.295 14.2755 94.1308 14.439 94.0077 14.6434L92.3247 17.0553L95.7728 22.2062Z" fill="black"/>
<path d="M97.0048 12.9661H99.5088C100.699 12.9661 101.602 13.2113 102.218 13.7019C102.834 14.1925 103.162 14.8874 103.162 15.7868C103.162 16.4 103.039 16.9314 102.752 17.3811C102.464 17.8308 102.095 18.1987 101.561 18.444C101.069 18.6892 100.494 18.8119 99.8372 18.8119C99.4677 18.8119 99.0572 18.771 98.6057 18.6892V22.2049H97.0048V12.9661ZM101.028 17.0949C101.356 16.7679 101.52 16.3591 101.52 15.7868C101.52 15.2145 101.356 14.8057 100.987 14.5604C100.658 14.3151 100.124 14.1925 99.4677 14.1925H98.6057V17.4628C99.0162 17.5446 99.3035 17.5446 99.5088 17.5446C100.166 17.5446 100.699 17.3811 101.028 17.0949Z" fill="black"/>
<path d="M106.241 21.7565C105.543 21.3886 105.05 20.8163 104.681 20.1213C104.311 19.4264 104.147 18.6088 104.147 17.6685C104.147 16.6874 104.352 15.8289 104.722 15.0931C105.091 14.3573 105.666 13.7849 106.364 13.417C107.103 13.0082 107.924 12.8038 108.909 12.8038C109.853 12.8038 110.633 13.0082 111.331 13.3762C111.987 13.7441 112.521 14.3164 112.89 15.0113C113.26 15.7063 113.424 16.5239 113.424 17.4233C113.424 18.4044 113.219 19.2629 112.849 19.9987C112.48 20.7345 111.905 21.3068 111.207 21.6748C110.51 22.0836 109.648 22.288 108.703 22.288C107.718 22.3288 106.897 22.1244 106.241 21.7565ZM110.386 20.6119C110.838 20.3257 111.166 19.9169 111.413 19.3855C111.618 18.8541 111.741 18.2409 111.741 17.5868C111.741 16.9327 111.659 16.3195 111.454 15.8289C111.248 15.2975 110.961 14.8887 110.51 14.6025C110.058 14.2755 109.524 14.1529 108.827 14.1529C108.17 14.1529 107.636 14.3164 107.185 14.6025C106.733 14.9296 106.405 15.3384 106.158 15.8698C105.912 16.4013 105.83 16.9736 105.83 17.6277C105.83 18.2817 105.953 18.8949 106.158 19.4264C106.364 19.9578 106.692 20.3666 107.144 20.6936C107.595 21.0207 108.129 21.1433 108.786 21.1433C109.401 21.0616 109.935 20.9389 110.386 20.6119Z" fill="black"/>
<path d="M121.552 22.2056V17.1365C121.552 16.4824 121.593 15.7466 121.634 14.929L116.955 22.2056H115.19V12.9667H116.667V18.2402C116.667 18.8125 116.667 19.4257 116.626 20.1207L121.224 12.9667H123.071V22.2056H121.552ZM117.94 12.1491C117.611 11.9856 117.324 11.7403 117.16 11.4542C116.996 11.168 116.873 10.8818 116.831 10.5548H117.981C118.104 11.2498 118.514 11.5768 119.171 11.5768C119.828 11.5768 120.239 11.2498 120.403 10.5548H121.552C121.511 10.8818 121.388 11.168 121.224 11.4542C121.059 11.7403 120.772 11.9447 120.444 12.1491C120.115 12.3535 119.664 12.4353 119.171 12.4353C118.72 12.4353 118.268 12.3126 117.94 12.1491Z" fill="black"/>
<path d="M127.297 14.2743H124.424L124.547 12.9253H131.772L131.608 14.2743H128.857V22.205H127.256V14.2743H127.297Z" fill="black"/>
<path d="M133.127 12.9661H138.586L138.422 14.2742H134.728V16.8088H138.217V18.0352H134.728V20.8559H138.627L138.504 22.164H133.127V12.9661Z" fill="black"/>
<path d="M149.834 17.6264C150.162 17.8308 150.409 18.076 150.614 18.444C150.819 18.771 150.901 19.1798 150.901 19.5886C150.901 20.12 150.778 20.5697 150.532 20.9376C150.285 21.3464 149.875 21.6326 149.382 21.837C148.89 22.0414 148.274 22.164 147.576 22.164H144.539V12.9661H147.453C148.438 12.9661 149.177 13.1705 149.67 13.5384C150.162 13.9063 150.409 14.4377 150.409 15.0918C150.409 15.6233 150.244 16.1138 149.957 16.4817C149.629 16.8497 149.218 17.0949 148.726 17.2585C149.136 17.2993 149.506 17.422 149.834 17.6264ZM146.14 16.727H147.125C147.453 16.727 147.74 16.6453 147.987 16.5226C148.233 16.4 148.438 16.1956 148.561 15.9912C148.685 15.7868 148.767 15.5415 148.767 15.2553C148.767 14.8874 148.644 14.6013 148.356 14.3969C148.069 14.1925 147.699 14.1107 147.166 14.1107H146.098V16.727H146.14ZM148.808 20.6106C149.136 20.3244 149.3 19.9565 149.3 19.466C149.3 18.9345 149.136 18.5666 148.767 18.2804C148.397 17.9943 147.905 17.8716 147.207 17.8716H146.14V20.9785H147.33C147.987 21.0194 148.479 20.8968 148.808 20.6106Z" fill="black"/>
<path fill-rule="evenodd" clip-rule="evenodd" d="M48.157 13.0062H31.1218C23.0763 13.0062 20.1618 15.9496 20.1618 23.9212V40.8863C20.1618 48.8988 23.1173 51.8012 31.1218 51.8012H48.157C56.2026 51.8012 59.117 48.8579 59.117 40.8863V23.9212C59.1581 15.9496 56.2026 13.0062 48.157 13.0062Z" fill="#C8102E"/>
<path d="M27.8796 32.4246H28.9058V37.4937H27.8796V35.4497H25.5398V37.4937H24.5136V32.4246H25.5398V34.4686H27.8796V32.4246ZM33.7085 35.327C33.7085 36.1446 33.298 36.5943 32.5592 36.5943C31.8203 36.5943 31.4098 36.1446 31.4098 35.2862V32.4246H30.3836V35.327C30.3836 36.7578 31.1635 37.5754 32.5592 37.5754C33.9548 37.5754 34.7758 36.7578 34.7758 35.2862V32.4246H33.7496V35.327H33.7085ZM45.6537 35.8994L44.5043 32.4246H43.6423L42.4929 35.8994L41.3846 32.4246H40.2763L42.0414 37.4937H42.9034L44.0528 34.1415L45.2021 37.4937H46.0642L47.8293 32.4246H46.762L45.6537 35.8994ZM49.7175 35.327H51.6057V34.3868H49.7175V33.3648H52.4678V32.4246H48.7323V37.4937H52.5909V36.5534H49.7585V35.327H49.7175ZM53.7813 37.4937H54.8075V32.4246H53.7813V37.4937ZM36.7872 36.4308L36.3356 37.4937H35.2684L37.485 32.4246H38.3881L40.6047 37.4937H39.5374L39.1269 36.4308H36.7872ZM37.1566 35.5314H38.7165L37.9365 33.7327L37.1566 35.5314Z" fill="white"/>
<path d="M39.66 25.9653C36.0888 25.9653 33.1743 23.0628 33.1743 19.5062H34.0774C34.0774 22.5722 36.5814 25.0659 39.66 25.0659C42.7387 25.0659 45.2427 22.5722 45.2427 19.5062H46.1457C46.1457 23.0628 43.2313 25.9653 39.66 25.9653Z" fill="white"/>
<rect x="0.700073" y="0.5" width="216.6" height="63" rx="8.5" stroke="black"/>
</svg>
