
<svg width="27" height="27" viewBox="0 0 27 27" fill="none" xmlns="http://www.w3.org/2000/svg">
<circle cx="13.3636" cy="13.3636" r="12.8636" stroke="#C2C2C2"/>
<path d="M19.0555 11.013C19.0491 10.531 18.9589 10.0539 18.7889 9.60282C18.6415 9.22237 18.4163 8.87685 18.1278 8.58835C17.8393 8.29984 17.4938 8.07469 17.1134 7.92727C16.6681 7.76014 16.1977 7.66976 15.7223 7.66C15.1101 7.63264 14.916 7.625 13.362 7.625C11.808 7.625 11.6088 7.625 11.0011 7.66C10.5258 7.66983 10.0557 7.76021 9.61063 7.92727C9.23012 8.07458 8.88455 8.2997 8.59603 8.58822C8.30751 8.87674 8.0824 9.22231 7.93509 9.60282C7.76761 10.0477 7.67744 10.518 7.66845 10.9933C7.64109 11.6061 7.63281 11.8002 7.63281 13.3542C7.63281 14.9082 7.63281 15.1067 7.66845 15.7151C7.67799 16.1911 7.76772 16.6607 7.93509 17.1068C8.08264 17.4872 8.30793 17.8326 8.59654 18.121C8.88516 18.4094 9.23076 18.6345 9.61127 18.7817C10.0551 18.9556 10.5253 19.0524 11.0017 19.0681C11.6145 19.0955 11.8086 19.1037 13.3626 19.1037C14.9166 19.1037 15.1158 19.1037 15.7235 19.0681C16.199 19.0587 16.6694 18.9686 17.1146 18.8015C17.495 18.6539 17.8404 18.4287 18.1289 18.1402C18.4174 17.8517 18.6426 17.5063 18.7902 17.1259C18.9575 16.6805 19.0473 16.2108 19.0568 15.7342C19.0842 15.122 19.0924 14.9279 19.0924 13.3733C19.0912 11.8193 19.0912 11.622 19.0555 11.013ZM13.3582 16.2929C11.7329 16.2929 10.4163 14.9763 10.4163 13.351C10.4163 11.7257 11.7329 10.4091 13.3582 10.4091C14.1384 10.4091 14.8867 10.719 15.4384 11.2708C15.9901 11.8225 16.3001 12.5708 16.3001 13.351C16.3001 14.1312 15.9901 14.8795 15.4384 15.4312C14.8867 15.983 14.1384 16.2929 13.3582 16.2929ZM16.4172 10.9863C16.0373 10.9863 15.7312 10.6795 15.7312 10.3003C15.7312 10.2102 15.7489 10.1211 15.7834 10.0379C15.8178 9.95468 15.8683 9.87909 15.932 9.81542C15.9957 9.75175 16.0713 9.70124 16.1545 9.66679C16.2376 9.63233 16.3268 9.61459 16.4169 9.61459C16.5069 9.61459 16.5961 9.63233 16.6793 9.66679C16.7624 9.70124 16.838 9.75175 16.9017 9.81542C16.9654 9.87909 17.0159 9.95468 17.0503 10.0379C17.0848 10.1211 17.1025 10.2102 17.1025 10.3003C17.1025 10.6795 16.7958 10.9863 16.4172 10.9863Z" fill="#C2C2C2"/>
<path d="M13.3583 15.2615C14.4137 15.2615 15.2693 14.4059 15.2693 13.3505C15.2693 12.295 14.4137 11.4395 13.3583 11.4395C12.3028 11.4395 11.4473 12.295 11.4473 13.3505C11.4473 14.4059 12.3028 15.2615 13.3583 15.2615Z" fill="#C2C2C2"/>
</svg>
