<svg xmlns="http://www.w3.org/2000/svg" xmlns:xlink="http://www.w3.org/1999/xlink" width="47.519999999999996" height="39.059999999999995"><path stroke="black" fill="black" stroke-width="1" d="M7.47 30.12L7.47 30.12Q5.46 30.12 3.97 29.35Q2.49 28.59 1.68 27.13Q0.87 25.68 0.87 23.61L0.87 23.61L4.47 23.61Q4.47 24.60 4.77 25.35Q5.07 26.10 5.71 26.50Q6.36 26.91 7.38 26.91L7.38 26.91Q8.40 26.91 9 26.52Q9.60 26.13 9.88 25.42Q10.17 24.72 10.17 23.79L10.17 23.79L10.17 8.76L13.77 8.76L13.77 23.79Q13.77 26.85 12.07 28.48Q10.38 30.12 7.47 30.12ZM22.92 30.12L22.92 30.12Q21.06 30.12 19.83 29.49Q18.60 28.86 18 27.81Q17.40 26.76 17.40 25.53L17.40 25.53Q17.40 24.09 18.13 23.04Q18.87 21.99 20.31 21.40Q21.75 20.82 23.85 20.82L23.85 20.82L27.66 20.82Q27.66 19.62 27.33 18.82Q27 18.03 26.31 17.64Q25.62 17.25 24.54 17.25L24.54 17.25Q23.31 17.25 22.44 17.80Q21.57 18.36 21.36 19.50L21.36 19.50L17.82 19.50Q18 17.88 18.90 16.72Q19.80 15.57 21.29 14.92Q22.77 14.28 24.54 14.28L24.54 14.28Q26.67 14.28 28.17 15.01Q29.67 15.75 30.46 17.11Q31.26 18.48 31.26 20.40L31.26 20.40L31.26 29.76L28.20 29.76L27.84 27.33L27.84 27.33Q27.54 27.93 27.07 28.44Q26.61 28.95 26.01 29.32Q25.41 29.70 24.64 29.91Q23.88 30.12 22.92 30.12ZM23.73 27.27L23.73 27.27Q24.60 27.27 25.27 26.95Q25.95 26.64 26.45 26.05Q26.94 25.47 27.21 24.75Q27.48 24.03 27.57 23.22L27.57 23.22L27.57 23.16L24.24 23.16Q23.19 23.16 22.50 23.43Q21.81 23.70 21.51 24.16Q21.21 24.63 21.21 25.26L21.21 25.26Q21.21 25.89 21.51 26.34Q21.81 26.79 22.38 27.03Q22.95 27.27 23.73 27.27ZM46.23 29.76L34.11 29.76L34.11 26.85L41.94 17.64L34.23 17.64L34.23 14.64L46.08 14.64L46.08 17.55L38.16 26.79L46.23 26.79L46.23 29.76Z"/></svg>
