<svg width="79" height="26" viewBox="0 0 79 26" fill="none" xmlns="http://www.w3.org/2000/svg">
  <path d="M0.243077 14.5325L9.47472 3.99638H0V0.591309L14.2681 0.591309V3.85376L5.03643 14.3899H14.2681V17.795H0.243077V14.5325Z" fill="#323232"/>
  <path d="M34.01 0.511836V17.8759H30.5127L30.4772 15.5583C29.1457 17.252 26.8378 18.2681 24.1748 18.2681C19.0974 18.2681 15.6 14.5422 15.6 9.19388C15.6 3.8456 19.0974 0.119629 24.1748 0.119629C26.8733 0.119629 29.1457 1.1358 30.4772 2.82943L30.5127 0.511836H34.01ZM30.0866 9.17606C30.0866 5.94926 27.9207 3.70298 24.7962 3.70298C21.6894 3.70298 19.5057 5.94926 19.5057 9.17606C19.5057 12.4029 21.6716 14.6491 24.7962 14.6491C27.9207 14.667 30.0866 12.4207 30.0866 9.17606Z" fill="#323232"/>
  <path d="M55.601 9.17606C55.601 14.5243 52.1036 18.2503 47.0262 18.2503C44.6117 18.2503 42.4814 17.4124 41.1144 15.9684V25.8805H37.1909V0.511836H40.6883L40.7238 2.82943C42.0553 1.1358 44.3632 0.119629 47.0262 0.119629C52.1036 0.119629 55.601 3.8456 55.601 9.17606ZM51.6775 9.17606C51.6775 5.94926 49.5116 3.70298 46.3871 3.70298C43.3158 3.70298 41.0966 5.94926 41.0966 9.17606C41.0966 12.4029 43.298 14.6491 46.3871 14.6491C49.5116 14.667 51.6775 12.4207 51.6775 9.17606Z" fill="#323232"/>
  <path d="M58.0325 18.1012V0.541016H61.8139V18.1012H58.0325Z" fill="#323232"/>
  <path d="M71.8985 18.6718C70.8511 18.6718 69.9102 18.5292 69.058 18.2439C68.2236 17.9587 67.478 17.6021 66.8566 17.1386C66.2353 16.6751 65.7027 16.1581 65.2588 15.5698C64.8328 14.9815 64.4954 14.3753 64.2646 13.7514L67.762 12.2717C68.1526 13.2878 68.7385 14.0188 69.4841 14.5001C70.2297 14.9815 71.0286 15.2132 71.8985 15.2132C72.8749 15.2132 73.6561 15.0171 74.2064 14.6071C74.7745 14.2149 75.0408 13.7692 75.0408 13.27C75.0408 12.7708 74.8278 12.343 74.4195 11.9864C73.9934 11.6299 73.2123 11.309 72.0405 11.0237L69.5906 10.4176C69.058 10.2928 68.5077 10.1145 67.9573 9.86493C67.407 9.61535 66.9099 9.29445 66.4305 8.92007C65.969 8.52786 65.5784 8.06434 65.2943 7.51169C65.0103 6.95903 64.8505 6.31724 64.8505 5.56848C64.8505 4.73058 65.028 3.98182 65.4009 3.3222C65.7559 2.66258 66.253 2.10992 66.8921 1.66423C67.5135 1.21854 68.2591 0.879815 69.0758 0.648056C69.9102 0.416297 70.7801 0.291504 71.721 0.291504C72.4844 0.291504 73.23 0.380642 73.9401 0.541091C74.6503 0.701539 75.3071 0.951126 75.9107 1.27202C76.5143 1.59292 77.0647 2.02078 77.544 2.51996C78.0234 3.01913 78.3962 3.60744 78.6802 4.30272L75.2539 5.74675C74.9343 4.99799 74.4195 4.44534 73.7093 4.10661C73.017 3.76789 72.2891 3.58961 71.579 3.58961C71.2594 3.58961 70.9221 3.62527 70.5848 3.71441C70.2475 3.80354 69.9457 3.91051 69.6794 4.07096C69.4131 4.23141 69.1823 4.40968 69.0225 4.65927C68.845 4.89103 68.7562 5.15844 68.7562 5.42586C68.7562 5.88938 68.9515 6.26376 69.3598 6.53117C69.7681 6.79858 70.3895 7.04817 71.2239 7.24427L73.8514 7.9039C75.6267 8.34959 76.9227 9.02704 77.7571 9.91842C78.5915 10.8276 78.9998 11.8795 78.9998 13.0917C78.9998 13.8405 78.8223 14.5358 78.4849 15.1954C78.1476 15.855 77.6683 16.4433 77.0292 16.9603C76.4078 17.4773 75.6444 17.8874 74.7745 18.1726C73.9224 18.5292 72.946 18.6718 71.8985 18.6718Z" fill="#323232"/>
</svg>
