<svg width="20" height="13" viewBox="0 0 20 13" fill="none" xmlns="http://www.w3.org/2000/svg">
<g clip-path="url(#clip0_1211_19063)">
<path d="M12.764 2.06848H7.52734V11.3109H12.764V2.06848Z" fill="#FF5F00"/>
<path d="M7.861 6.68821C7.86022 5.79891 8.06547 4.92102 8.46127 4.1207C8.85707 3.32035 9.43312 2.61843 10.146 2.0678C9.39375 1.48842 8.51095 1.09369 7.57127 0.916555C6.63157 0.739425 5.66227 0.785033 4.74425 1.04957C3.82622 1.31411 2.9861 1.78991 2.29401 2.43726C1.60191 3.08461 1.07791 3.88471 0.765742 4.77083C0.453572 5.65694 0.362289 6.60335 0.499511 7.53105C0.636732 8.45877 0.998477 9.34087 1.55455 10.1037C2.11063 10.8666 2.84492 11.4881 3.69612 11.9164C4.54732 12.3447 5.49075 12.5674 6.44767 12.5658C7.78992 12.5675 9.09332 12.1244 10.146 11.3086C9.43312 10.758 8.85707 10.0561 8.46127 9.25574C8.06547 8.45542 7.86022 7.57753 7.861 6.68821Z" fill="#EB001B"/>
<path d="M19.2559 10.3302V10.1409H19.3342V10.1017H19.1309V10.1409H19.2092V10.3302H19.2559ZM19.6409 10.3302V10.1017H19.5809L19.5109 10.2649L19.4409 10.1017H19.3792V10.3302H19.4225V10.1572L19.4875 10.3058H19.5325L19.5975 10.1572V10.3302H19.6409Z" fill="#F79E1B"/>
<path d="M19.8282 6.68832C19.8319 7.78982 19.5186 8.87004 18.9241 9.80501C18.3297 10.74 17.4781 11.4918 16.4672 11.9742C15.4564 12.4567 14.3271 12.6501 13.2091 12.5324C12.0911 12.4147 11.0296 11.9906 10.1465 11.3087C10.8589 10.7576 11.4346 10.0556 11.8304 9.25541C12.2262 8.45518 12.4318 7.57752 12.4318 6.68832C12.4318 5.79909 12.2262 4.92145 11.8304 4.12122C11.4346 3.321 10.8589 2.61899 10.1465 2.0679C11.0296 1.38606 12.0911 0.96194 13.2091 0.844221C14.3271 0.726503 15.4564 0.919955 16.4672 1.40238C17.4781 1.8848 18.3297 2.63664 18.9241 3.57162C19.5186 4.5066 19.8319 5.58682 19.8282 6.68832Z" fill="#F79E1B"/>
</g>
<defs>
<clipPath id="clip0_1211_19063">
<rect width="19.75" height="12" fill="white" transform="translate(0.25 0.810669)"/>
</clipPath>
</defs>
</svg>
