<svg width="38" height="13" viewBox="0 0 38 13" fill="none" xmlns="http://www.w3.org/2000/svg">
<path fill-rule="evenodd" clip-rule="evenodd" d="M9.69433 12.7164H6.53325L4.16283 3.40712C4.05033 2.97889 3.81142 2.60031 3.46003 2.42188C2.58306 1.97349 1.6167 1.61663 0.5625 1.43665V1.07825H5.65475C6.35755 1.07825 6.88465 1.61663 6.9725 2.2419L8.2024 8.95699L11.3619 1.07825H14.4352L9.69433 12.7164ZM16.1922 12.7164H13.2068L15.665 1.07825H18.6504L16.1922 12.7164ZM22.5129 4.30319C22.6007 3.67637 23.1278 3.31797 23.7428 3.31797C24.7091 3.22797 25.7617 3.40794 26.6402 3.85479L27.1675 1.34905C26.289 0.990648 25.3225 0.810669 24.4456 0.810669C21.548 0.810669 19.4396 2.42272 19.4396 4.66004C19.4396 6.36209 20.9331 7.25577 21.9873 7.79417C23.1278 8.33099 23.5671 8.68939 23.4792 9.22624C23.4792 10.0315 22.6007 10.3899 21.7237 10.3899C20.6695 10.3899 19.6153 10.1215 18.6505 9.67309L18.1234 12.1804C19.1776 12.6272 20.3182 12.8072 21.3724 12.8072C24.6213 12.8956 26.6402 11.2851 26.6402 8.86784C26.6402 5.82369 22.5129 5.64527 22.5129 4.30319ZM37.0882 12.7164L34.7178 1.07825H32.1715C31.6445 1.07825 31.1175 1.43665 30.9417 1.97349L26.5522 12.7164H29.6255L30.239 11.0159H34.015L34.3662 12.7164H37.0882ZM32.6107 4.21204L33.4878 8.59824H31.0295L32.6107 4.21204Z" fill="#15195A"/>
</svg>
